<svg xmlns="http://www.w3.org/2000/svg" width="512" height="512" id="group-of-people"><path d="M261.312 475.572L214.956 474.682C184.172 472.493 105.927 463.487 86.0201 435.644C85.0665 434.31 85.1859 434.401 83.5352 434.1L67.4775 431.03C55.8464 428.426 44.2821 424.934 33.1412 420.694C17.8731 414.883 9.71467 410.932 2.90008 395.917C0.570408 390.784 2.20023 367.916 3.54503 359.807C6.6755 340.931 15.9672 323.539 34.4189 315.625C39.4298 313.476 44.7586 312.152 49.709 309.836C56.8387 306.5 63.6152 301.823 69.7783 296.949C74.7012 293.056 77.5417 288.011 81.7026 283.465L84.5209 280.468C85.5348 279.408 85.7107 279.791 84.9422 278.72L81.2084 273.016C74.3694 261.956 56.3432 226.426 65.4834 214.12C66.6008 212.615 66.6699 213.047 66.3815 211.164L65.6041 206.384C62.5298 186.465 69.6184 164.485 88.375 154.741C103.225 147.026 123.356 147.498 137.997 155.631C140.035 156.763 145.321 161.743 145.504 161.796C168.27 168.405 170.956 187.462 168.362 208.878C168.019 211.71 169.015 211.559 170.522 213.928C179.914 228.694 158.39 267.203 150.827 279.519C154.784 283.023 158.318 287.523 160.778 292.184L171.142 285.547C179.058 280.241 187.79 273.348 193.175 265.314C196.383 260.528 198.718 255.396 202.403 250.879L205.059 247.839C205.691 247.133 206.099 247.215 205.544 246.486L198.649 236.795C191.956 226.426 186.913 215.333 181.625 204.213C175.589 191.522 164.367 174.708 175.554 161.739C176.723 160.384 177.076 160.735 176.553 159.081L173.407 147.588C167.223 117.937 166.783 83.9626 189.806 61.0627C205.437 45.5159 228.462 33.8829 250.94 33.9605C278.679 33.5268 297.271 43.6792 311.818 66.3119C314.638 70.6989 313.288 69.3626 318.196 70.5455C350.004 78.2124 344.708 132.217 337.251 155.283L335.9 159.058C334.913 161.577 339.267 166.083 340.194 168.861L340.624 170.319C343.394 185.262 315.476 234.755 307.187 247.034C312.48 252.27 315.425 259.351 319.424 265.498C327.059 277.236 339.691 284.583 351.12 292.08C353.977 287.287 357.799 283.175 361.783 279.3C353.602 265.995 347.241 252.831 342.77 237.761C339.309 226.097 336.792 220.338 345.275 210.163L343.812 202.404C339.413 163.451 380.857 139.532 415.293 155.127C419.477 157.021 422.814 158.534 424.477 162.957C443.196 163.036 448.683 185.653 447.554 200.977L446.9 207.741C446.321 212.491 446.448 211.076 448.314 215.276C455.208 230.788 435.454 268.72 426.106 280.215C430.037 283.195 432.163 287.185 435.321 290.791C441.501 297.849 457.924 307.588 466.09 311.138C473.978 314.566 481.686 316.759 488.63 322.17C507.002 336.485 509.879 359.907 509.932 381.68C509.957 392.068 510.415 397.147 503.442 405.875C490.902 421.571 444.441 432.229 426.088 434.297C410.588 464.189 319.939 473.632 291.125 475.336C281.25 475.919 271.209 475.611 261.312 475.572ZM249.186 48.6101C230.192 49.823 210.841 59.0675 198.253 73.3666C186.789 86.3882 184.447 102.145 184.427 118.742L184.881 134.59C186.895 124.162 188.402 113.549 197.875 107.084C209.717 99.0011 220.816 103.486 232.985 107.162C244.526 110.648 255.408 110.753 267.116 108.044C271.065 106.952 274.925 105.742 278.58 103.862C290.072 97.9532 294.134 93.7917 307.564 101.421C319.114 107.983 326.756 121.184 328.168 134.32L328.387 122.519C328.423 112.371 328.244 97.9682 321.052 89.8114C315.16 83.1288 309 90.0255 301.267 77.4923L296.516 69.9814C287.937 57.567 271.716 49.5027 256.657 48.6981L249.186 48.6101ZM293.931 112.751C289.864 114.408 286.175 116.85 282.1 118.537C266.126 125.147 246.597 126.186 229.895 121.577C221.664 119.305 213.861 114.491 205.549 120.213C200.653 123.584 199.696 131.801 198.811 137.245L196.335 157.598C195.386 166.935 187.64 167.3 186.337 173.965C185.49 178.297 190.193 187.3 192.009 191.324L199.59 207.208C205.682 219.759 212.98 234.703 224.158 243.625C233.975 252.359 245.422 257.274 258.672 256.462C292.036 254.417 308.669 218.172 319.942 191.586C332.438 162.116 317.478 172.594 315.688 159.625L315.624 159.18C315.208 156.203 315.347 153.157 315.068 150.165C313.705 135.557 311.175 116.092 293.931 112.751ZM391.436 164.368C381.237 165.041 372.609 169.52 365.867 177.201C358.04 186.12 357.993 197.45 359.74 208.486C360.986 216.365 361.737 219.537 354.435 223.881C358.103 241.152 373.612 286.32 397.312 282.449C417.645 277.813 432.201 241.671 434.856 223.579C427.868 214.239 432.271 208.478 432.245 196.933C432.225 187.946 430.116 180.412 420.872 177.324C415.877 175.654 416.017 175.042 412.441 171.284C407.54 166.133 398.469 164.028 391.436 164.368ZM106.688 165.348C86.896 167.831 77.8155 184.813 80.1471 203.602C80.8681 209.411 84.3327 215.942 80.3415 221.089L77.4298 224.516C80.4635 243.685 100.33 291.883 124.648 280.973C141.707 271.955 155.402 243.943 157.687 224.694C152.428 216.57 152.974 218.293 153.288 208.5C153.546 200.453 153.483 185.774 146.689 179.848C143.886 177.403 140.005 177.984 137.041 176.049C135.49 175.037 134.149 173.34 132.733 172.114C125.969 166.259 115.354 164.603 106.688 165.348ZM296.84 257.625C291.968 259.541 287.612 262.903 282.88 265.195C265.472 273.629 248.031 273.901 230.554 266.273L215.992 258.372C209.805 264.054 206.594 267.724 208.533 276.003L228.626 363.025C229.335 365.503 229.941 368.118 230.912 370.5L231.484 372.173C232.715 357.006 233.288 340.478 239.876 326.492C235.883 322.605 233.532 319.199 232.262 313.694C228.89 296.043 242.88 281.531 260.25 284.481L260.667 284.548C276.634 287.242 284.517 305.106 277.784 319.596C274.21 327.288 271.954 323.547 274.495 330.875C275.538 333.883 276.318 337.144 276.888 340.272L280.271 363.242C280.606 365.906 280.437 369.122 281.105 371.669C281.853 369.894 282.171 367.874 282.657 366.004L292.615 328.818L304.662 275.823C304.861 275.136 305.47 273.744 305.46 273.094C305.415 269.955 299.279 259.65 297.354 257.574L296.84 257.625ZM194.764 286.375C184.211 295.8 169.602 305.384 156.837 311.211C148.8 314.88 140.393 317.659 132.528 321.722C103.434 336.751 98.0315 370.098 96.3488 399.905L96.1811 410.06C96.1527 416.71 95.6039 423.894 100.375 429.247C110.8 440.945 145.251 448.932 159.802 452.199C178.526 456.113 197.108 458.447 216.195 459.659L224.56 460.344L249.722 460.064C248.939 458.414 248.62 456.216 247.979 454.453L222.843 392.929L205.1 333.767L194.764 286.375ZM316.906 286.355C316.459 289.989 315.519 293.567 314.785 297.153L310.517 317.416C306.107 337.399 301.05 357.537 294.865 377.04L281.524 414.433L270.645 440.101L264.71 456.75C264.386 458.031 264.294 459.33 263.618 460.491L287.625 460.331L307.291 458.747C323.397 457.267 339.35 455.306 355.195 451.977L378.823 445.533C385.632 443.415 392.416 441.163 398.902 438.178C413.687 431.377 416.593 426.218 416.384 410.29C416.181 394.871 414.219 378.655 410.288 363.743C399.393 322.413 379.769 323.951 348.614 307.861C337.293 302.014 326.623 294.581 316.906 286.355ZM371.634 290.139L367.367 295.846C366.827 296.583 365.987 297.476 365.734 298.335C382.475 306.79 401.634 311.726 411.498 330.101L414.743 320.916L422.144 297.858C420.409 295.297 418.083 293.073 415.748 291.06C414.307 291.254 409.724 294.575 407.97 295.37C395.845 300.867 382.274 297.116 371.634 290.139ZM95.7046 290.424L89.2925 297.605L101.075 329.417C108.756 319.552 115.144 314.077 126.496 308.024L142.973 300.52C144.054 300.068 145.828 299.5 146.616 298.621L140.411 290.451C119.172 300.333 114.942 301.652 95.7046 290.424ZM255.248 299.569C242.862 301.987 243.036 317.589 256.793 317.544C268.598 316.365 267.644 298.479 255.248 299.569ZM434.59 308.757L420.688 347.044C428.648 364.73 432.233 398.349 430.757 418.201L470.441 407.793C479.158 404.516 491.526 400.449 494.272 390.375L494.393 389.953C495.914 384.306 494.204 371.036 493.447 365.3C490.386 342.081 485.658 334.72 465.013 326.634C454.084 322.354 442.48 317.831 434.59 308.757ZM77.28 309.625C71.51 314.792 64.5752 319.326 57.5156 322.534L42.782 328.429C21.3972 337.22 18.4121 354.35 17.2312 376.08C15.9722 399.248 21.9219 400.426 41.6887 407.382C51.217 410.81 60.9719 413.771 70.8591 415.967C72.5812 416.349 80.0998 417.939 81.4279 417.653C80.0355 396.373 82.988 373.968 88.8834 353.429L90.3658 348.796C90.9458 347.138 90.887 347.274 90.2311 345.676L77.7832 309.875C77.3635 309.628 77.5441 309.678 77.28 309.625ZM254.499 332.83C251.113 333.498 250.891 339.676 250.349 342.483C247.989 354.71 246.783 367.267 245.395 379.642C243.28 398.507 241.252 399.942 248.373 416.857L256.424 435.875L256.738 435.186L266.917 409.196C269.377 403.159 268.791 400.861 268.316 394.337L261.633 340.482C260.713 335.155 260.425 332.47 254.499 332.83Z"></path></svg>